<mxfile host="app.diagrams.net" modified="2022-07-30T07:05:06.722Z" agent="5.0 (Macintosh; Intel Mac OS X 10_15_7) AppleWebKit/537.36 (KHTML, like Gecko) Chrome/103.0.0.0 Safari/537.36" etag="yH24v-dqZq3wThnqNPl2" version="20.2.1" type="github">
  <diagram id="-O95exIK02R6bGPWSS0J" name="Page-1">
    <mxGraphModel dx="1018" dy="659" grid="1" gridSize="10" guides="1" tooltips="1" connect="1" arrows="1" fold="1" page="1" pageScale="1" pageWidth="850" pageHeight="1100" math="0" shadow="0">
      <root>
        <mxCell id="0" />
        <mxCell id="1" parent="0" />
        <mxCell id="tALpKCNFHkkcV5oGAd4A-11" value="" style="endArrow=classic;html=1;rounded=0;fontSize=16;strokeWidth=2;strokeColor=#66B2FF;exitX=0.5;exitY=1;exitDx=0;exitDy=0;entryX=0.5;entryY=0;entryDx=0;entryDy=0;" edge="1" parent="1" source="tALpKCNFHkkcV5oGAd4A-1" target="tALpKCNFHkkcV5oGAd4A-9">
          <mxGeometry width="50" height="50" relative="1" as="geometry">
            <mxPoint x="430" y="210" as="sourcePoint" />
            <mxPoint x="325" y="350" as="targetPoint" />
          </mxGeometry>
        </mxCell>
        <mxCell id="tALpKCNFHkkcV5oGAd4A-10" value="" style="endArrow=classic;html=1;rounded=0;fontSize=16;strokeWidth=2;strokeColor=#66B2FF;exitX=0.5;exitY=1;exitDx=0;exitDy=0;entryX=0.5;entryY=0;entryDx=0;entryDy=0;" edge="1" parent="1" source="tALpKCNFHkkcV5oGAd4A-1" target="tALpKCNFHkkcV5oGAd4A-8">
          <mxGeometry width="50" height="50" relative="1" as="geometry">
            <mxPoint x="400" y="330" as="sourcePoint" />
            <mxPoint x="450" y="280" as="targetPoint" />
          </mxGeometry>
        </mxCell>
        <mxCell id="tALpKCNFHkkcV5oGAd4A-1" value="&lt;font style=&quot;font-size: 18px;&quot;&gt;Interpreter&lt;/font&gt;" style="rounded=1;whiteSpace=wrap;html=1;fillColor=#f5f5f5;fontColor=#333333;strokeColor=#666666;" vertex="1" parent="1">
          <mxGeometry x="360" y="140" width="120" height="60" as="geometry" />
        </mxCell>
        <mxCell id="tALpKCNFHkkcV5oGAd4A-2" value="&lt;font style=&quot;font-size: 16px;&quot;&gt;Config struct&lt;/font&gt;" style="rounded=0;whiteSpace=wrap;html=1;fontSize=18;fillColor=#f8cecc;strokeColor=#b85450;" vertex="1" parent="1">
          <mxGeometry x="120" y="240" width="120" height="60" as="geometry" />
        </mxCell>
        <mxCell id="tALpKCNFHkkcV5oGAd4A-3" value="&lt;font style=&quot;font-size: 16px;&quot;&gt;ScopeContext struct&lt;/font&gt;" style="rounded=0;whiteSpace=wrap;html=1;fontSize=18;fillColor=#f8cecc;strokeColor=#b85450;" vertex="1" parent="1">
          <mxGeometry x="280" y="240" width="120" height="60" as="geometry" />
        </mxCell>
        <mxCell id="tALpKCNFHkkcV5oGAd4A-4" value="&lt;font style=&quot;font-size: 16px;&quot;&gt;KeccakState struct&lt;/font&gt;" style="rounded=0;whiteSpace=wrap;html=1;fontSize=18;fillColor=#f8cecc;strokeColor=#b85450;" vertex="1" parent="1">
          <mxGeometry x="440" y="240" width="120" height="60" as="geometry" />
        </mxCell>
        <mxCell id="tALpKCNFHkkcV5oGAd4A-5" value="&lt;font style=&quot;font-size: 16px;&quot;&gt;EVMInterpreter struct&lt;/font&gt;" style="rounded=0;whiteSpace=wrap;html=1;fontSize=18;fillColor=#f8cecc;strokeColor=#b85450;" vertex="1" parent="1">
          <mxGeometry x="600" y="240" width="120" height="60" as="geometry" />
        </mxCell>
        <mxCell id="tALpKCNFHkkcV5oGAd4A-8" value="&lt;font style=&quot;font-size: 16px;&quot;&gt;NewEVMInterpreter ()&lt;/font&gt;" style="rounded=0;whiteSpace=wrap;html=1;fontSize=18;fillColor=#dae8fc;strokeColor=#6c8ebf;" vertex="1" parent="1">
          <mxGeometry x="230" y="340" width="170" height="60" as="geometry" />
        </mxCell>
        <mxCell id="tALpKCNFHkkcV5oGAd4A-9" value="&lt;font style=&quot;font-size: 16px;&quot;&gt;Run ()&lt;/font&gt;" style="rounded=0;whiteSpace=wrap;html=1;fontSize=18;fillColor=#dae8fc;strokeColor=#6c8ebf;" vertex="1" parent="1">
          <mxGeometry x="440" y="340" width="170" height="60" as="geometry" />
        </mxCell>
      </root>
    </mxGraphModel>
  </diagram>
</mxfile>
